<?xml version="1.0" encoding="UTF-8" standalone="no"?>
<!DOCTYPE svg PUBLIC "-//W3C//DTD SVG 1.1//EN" "http://www.w3.org/Graphics/SVG/1.1/DTD/svg11.dtd">
<svg width="153.6pt" height="57.6pt" viewBox="0 0 153.6 57.6" overflow="visible" version="1.1" xmlns="http://www.w3.org/2000/svg">
  <path d="M123.319,36.97324 C123.319,38.51874 123.4313,39.54757 123.6559,40.05974 C123.8806,40.57191 124.213,40.95379 124.6533,41.20538 C125.0936,41.45697 125.8978,41.58277 127.0659,41.58277 L127.0659,42.5532 L115.0704,42.5532 L115.0704,41.58277 C116.2744,41.58277 117.0831,41.46596 117.4964,41.23234 C117.9098,40.99872 118.2377,40.61234 118.4803,40.07322 C118.7229,39.53409 118.8442,38.50077 118.8442,36.97324 L118.8442,27.45767 C118.8442,24.78002 118.7634,23.04583 118.6016,22.25511 C118.4758,21.68004 118.2782,21.28019 118.0086,21.05556 C117.739,20.83092 117.3706,20.7186 116.9034,20.7186 C116.4002,20.7186 115.7892,20.85338 115.0704,21.12295 L114.693,20.15252 L122.1329,17.13342 L123.319,17.13342 z" stroke="Black" stroke-width="0" fill="#000000" fill-opacity="1" />
  <path d="M117.4021,10.41673 L120.5357,13.55037 C121.4473,14.40983 122.1297,14.94257 122.5829,15.14859 C123.0362,15.35461 123.5876,15.43956 124.2373,15.40345 L124.2373,15.86718 L117.6352,15.86718 L117.6352,15.40256 C118.0272,15.37829 118.2973,15.30272 118.4456,15.17586 C118.5939,15.049 118.6515,14.88939 118.6183,14.69703 C118.5837,14.4963 118.3783,14.19721 118.0021,13.79975 L116.0106,11.80825 L114.0191,13.79975 C113.6429,14.19721 113.4375,14.4963 113.4029,14.69703 C113.3697,14.88939 113.4273,15.049 113.5756,15.17586 C113.7239,15.30272 113.994,15.37829 114.386,15.40256 L114.386,15.86718 L107.7839,15.86718 L107.7839,15.40345 C108.4336,15.43956 108.985,15.35461 109.4383,15.14859 C109.8915,14.94257 110.5739,14.40983 111.4855,13.55037 L114.6191,10.41673 L111.4855,7.283101 C110.5739,6.423643 109.8915,5.890903 109.4383,5.684881 C108.985,5.478859 108.4336,5.393906 107.7839,5.430019 L107.7839,4.966284 L114.386,4.966284 L114.386,5.430908 C113.994,5.455181 113.7239,5.530747 113.5756,5.657606 C113.4273,5.784465 113.3697,5.944076 113.4029,6.136439 C113.4375,6.337165 113.6429,6.636258 114.0191,7.033717 L116.0106,9.025221 L118.0021,7.033717 C118.3783,6.636258 118.5837,6.337165 118.6183,6.136439 C118.6515,5.944076 118.5939,5.784465 118.4456,5.657606 C118.2973,5.530747 118.0272,5.455181 117.6352,5.430908 L117.6352,4.966284 L124.2373,4.966284 L124.2373,5.430019 C123.5876,5.393906 123.0362,5.478859 122.5829,5.684881 C122.1297,5.890903 121.4473,6.423643 120.5357,7.283101 z" stroke="Black" stroke-width="0" fill="#000000" fill-opacity="1" />
  <path d="M71.02511,38.99496 C68.49122,40.95379 66.90079,42.08595 66.25385,42.39146 C65.28342,42.84073 64.2501,43.06536 63.15387,43.06536 C61.44664,43.06536 60.04042,42.48131 58.93521,41.31321 C57.83001,40.1451 57.2774,38.60859 57.2774,36.70368 C57.2774,35.49963 57.54697,34.45732 58.08609,33.57675 C58.8229,32.35473 60.10332,31.2046 61.92736,30.12635 C63.7514,29.0481 66.78399,27.73622 71.02511,26.19073 L71.02511,25.2203 C71.02511,22.7583 70.63425,21.06903 69.85251,20.15252 C69.07078,19.23601 67.93412,18.77775 66.44254,18.77775 C65.31038,18.77775 64.41183,19.08325 63.74691,19.69426 C63.06402,20.30527 62.72257,21.00614 62.72257,21.79685 L62.77649,23.36032 C62.77649,24.18698 62.56533,24.82494 62.14301,25.27421 C61.7207,25.72349 61.16809,25.94812 60.4852,25.94812 C59.82028,25.94812 59.27666,25.7145 58.85434,25.24726 C58.43203,24.78002 58.22087,24.14205 58.22087,23.33336 C58.22087,21.78787 59.01159,20.36817 60.59303,19.07427 C62.17446,17.78037 64.39386,17.13342 67.25123,17.13342 C69.44367,17.13342 71.24076,17.50182 72.64249,18.23862 C73.70277,18.79572 74.4845,19.66731 74.98769,20.85338 C75.31116,21.62613 75.4729,23.20757 75.4729,25.59769 L75.4729,33.98109 L75.60768,38.30758 C75.69753,38.83772 75.84579,39.19265 76.05246,39.37235 C76.25912,39.55206 76.49724,39.64192 76.7668,39.64192 L77.52158,39.45322 L79.70503,37.48541 L79.70503,38.99496 C77.6923,41.69059 75.76942,43.03841 73.93639,43.03841 C73.05582,43.03841 72.35495,42.73291 71.8338,42.12189 C71.31264,41.51089 71.04308,40.46857 71.02511,38.99496 z M71.02511,37.24281 L71.02511,27.83506 C68.31151,28.91331 66.55935,29.67707 65.76863,30.12635 C64.34894,30.91706 63.33358,31.74372 62.72257,32.60633 C62.11156,33.46893 61.80606,34.4124 61.80606,35.43674 C61.80606,36.73064 62.19243,37.8044 62.96518,38.65801 C63.73793,39.51163 64.62749,39.93843 65.63385,39.93843 C66.99963,39.93843 68.79672,39.03989 71.02511,37.24281 z" stroke="Black" stroke-width="0" fill="#000000" fill-opacity="1" />
  <path d="M91.5923,27.16116 C91.57433,30.82721 92.46389,33.70255 94.26098,35.78717 C96.05806,37.87179 98.16964,38.9141 100.5957,38.9141 C102.2131,38.9141 103.6193,38.46932 104.8144,37.57976 C106.0094,36.6902 107.0113,35.16717 107.82,33.01067 L108.6556,33.5498 C108.2782,36.0118 107.182,38.25367 105.367,40.27539 C103.5519,42.29711 101.2786,43.30797 98.54703,43.30797 C95.58183,43.30797 93.04345,42.15334 90.93188,39.84409 C88.8203,37.53483 87.76451,34.43037 87.76451,30.53069 C87.76451,26.30754 88.84725,23.01438 91.01274,20.65121 C93.17823,18.28804 95.89632,17.10646 99.16702,17.10646 C101.9345,17.10646 104.2078,18.01848 105.987,19.84252 C107.7661,21.66656 108.6556,24.10611 108.6556,27.16116 z M91.5923,25.59769 L103.0218,25.59769 C102.9319,24.01625 102.7432,22.90206 102.4557,22.25511 C102.0064,21.24874 101.337,20.45802 100.4474,19.88296 C99.55788,19.30789 98.6279,19.02036 97.65747,19.02036 C96.16589,19.02036 94.83155,19.59992 93.65446,20.75904 C92.47737,21.91816 91.78999,23.53104 91.5923,25.59769 z" stroke="Black" stroke-width="0" fill="#000000" fill-opacity="1" />
  <path d="M34.06501,35.76021 C34.06501,37.35962 34.29414,38.43787 34.7524,38.99496 C35.21066,39.55206 35.7992,39.83061 36.51804,39.83061 C37.11108,39.83061 37.68614,39.64641 38.24324,39.27801 C38.80034,38.9096 39.23164,38.36599 39.53714,37.64715 L40.58844,37.64715 C39.95946,39.40829 39.0699,40.73365 37.91977,41.6232 C36.76963,42.51276 35.58355,42.95754 34.36153,42.95754 C33.53487,42.95754 32.72618,42.72841 31.93547,42.27015 C31.14475,41.8119 30.5607,41.15596 30.18331,40.30235 C29.80592,39.44873 29.61723,38.13237 29.61723,36.35325 L29.61723,19.74817 L25.70857,19.74817 L25.70857,18.85862 C26.69696,18.46326 27.70782,17.79384 28.74115,16.85037 C29.77447,15.9069 30.69548,14.78822 31.50417,13.49432 C31.9175,12.81142 32.49257,11.56245 33.22937,9.747392 L34.06501,9.747392 L34.06501,17.86123 L39.83366,17.86123 L39.83366,19.74817 L34.06501,19.74817 z" stroke="Black" stroke-width="0" fill="#000000" fill-opacity="1" />
  <path d="M23.70421,17.80732 C23.38074,15.38126 22.80117,13.44939 21.96553,12.01172 C21.12988,10.57405 19.93932,9.432902 18.39382,8.588271 C16.84833,7.743641 15.24892,7.321326 13.5956,7.321326 C11.72663,7.321326 10.18114,7.891901 8.95912,9.033051 C7.737102,10.1742 7.126092,11.47259 7.126092,12.92823 C7.126092,14.04243 7.512466,15.05778 8.285213,15.97429 C9.399406,17.32211 12.05011,19.1192 16.23732,21.36555 C19.65178,23.19858 21.9835,24.6048 23.23248,25.58421 C24.48145,26.56362 25.44289,27.71825 26.1168,29.0481 C26.7907,30.37794 27.12766,31.77068 27.12766,33.22632 C27.12766,35.99383 26.0539,38.37946 23.90638,40.38321 C21.75887,42.38697 18.99585,43.38884 15.61732,43.38884 C14.55704,43.38884 13.55966,43.30797 12.62518,43.14623 L9.161292,42.16233 C7.409133,41.59625 6.299433,41.31321 5.832191,41.31321 C5.382919,41.31321 5.027995,41.44799 4.767417,41.71755 C4.506839,41.98711 4.313653,42.54421 4.187857,43.38884 L3.190474,43.38884 L3.190474,30.85417 L4.187857,30.85417 C4.655099,33.47791 5.284079,35.44123 6.074797,36.74411 C6.865515,38.047 8.074055,39.12975 9.700418,39.99235 C11.32678,40.85495 13.11039,41.28625 15.05124,41.28625 C17.2976,41.28625 19.07222,40.69321 20.37511,39.50713 C21.678,38.32106 22.32944,36.91933 22.32944,35.30195 C22.32944,34.40341 22.08234,33.49588 21.58814,32.57937 C21.09394,31.66286 20.32569,30.80924 19.28338,30.01852 C18.58252,29.47939 16.66862,28.33375 13.54169,26.58159 C10.41476,24.82944 8.190866,23.4322 6.870008,22.38989 C5.54915,21.34758 4.547274,20.19745 3.864381,18.93949 C3.181489,17.68153 2.840042,16.29777 2.840042,14.78822 C2.840042,12.16447 3.846411,9.904637 5.859147,8.008711 C7.871883,6.112786 10.43273,5.164823 13.54169,5.164823 C15.48254,5.164823 17.54021,5.64105 19.71468,6.593506 C20.72105,7.042778 21.4309,7.267413 21.84423,7.267413 C22.31147,7.267413 22.69335,7.128139 22.98987,6.849591 C23.28639,6.571043 23.5245,6.009453 23.70421,5.164823 L24.70159,5.164823 L24.70159,17.80732 z" stroke="Black" stroke-width="0" fill="#000000" fill-opacity="1" />
  <path d="M114.9663,41.98711 C114.9663,46.21027 114.0678,49.34618 112.2707,51.39486 C110.4736,53.44354 108.1374,54.46788 105.262,54.46788 C103.6267,54.46788 102.4137,54.17136 101.6229,53.57832 C100.8322,52.98528 100.4369,52.37427 100.4369,51.74529 C100.4369,51.11631 100.657,50.57719 101.0973,50.12791 C101.5376,49.67864 102.0542,49.45401 102.6473,49.45401 C103.1145,49.45401 103.5908,49.57082 104.076,49.80444 C104.3815,49.93023 104.97,50.384 105.8416,51.16573 C106.7132,51.94746 107.4455,52.33833 108.0385,52.33833 C108.4698,52.33833 108.8922,52.1721 109.3055,51.83964 C109.7188,51.50718 110.0243,50.95008 110.222,50.16835 C110.4197,49.38662 110.5185,47.69286 110.5185,45.08709 L110.5185,27.51159 C110.5185,24.79799 110.4377,23.05481 110.2759,22.28207 C110.1501,21.68903 109.9524,21.28019 109.6829,21.05556 C109.4133,20.83092 109.0449,20.7186 108.5777,20.7186 C108.0745,20.7186 107.4635,20.85338 106.7446,21.12295 L106.3673,20.15252 L113.8072,17.13342 L114.9663,17.13342 z" stroke="Black" stroke-width="0" fill="#000000" fill-opacity="1" />
  <path d="M138.2645,23.0638 L140.5827,20.74556 L140.7983,20.09861 C140.7983,19.73919 140.6501,19.42919 140.3536,19.16862 C140.057,18.90804 139.5673,18.75978 138.8844,18.72384 L138.8844,17.86123 L149.6131,17.86123 L149.6131,18.72384 C148.1394,18.75978 146.9129,18.98441 145.9335,19.39774 C144.9541,19.81107 143.8803,20.54788 142.7122,21.60816 L136.3775,27.45767 L142.7122,35.46369 C144.4734,37.67411 145.6595,39.07584 146.2705,39.66887 C147.1331,40.5135 147.8878,41.06161 148.5348,41.31321 C148.9841,41.49292 149.7658,41.58277 150.88,41.58277 L150.88,42.5532 L138.8844,42.5532 L138.8844,41.58277 C139.5673,41.5648 140.0301,41.46147 140.2727,41.27277 C140.5153,41.08408 140.6366,40.81901 140.6366,40.47756 C140.6366,40.06423 140.2772,39.39931 139.5583,38.4828 L131.9836,28.80549 L131.9836,37.0002 C131.9836,38.59961 132.0959,39.6509 132.3206,40.15409 C132.5452,40.65727 132.8642,41.01669 133.2775,41.23234 C133.6909,41.44799 134.5894,41.5648 135.9732,41.58277 L135.9732,42.5532 L123.4115,42.5532 L123.4115,41.58277 C124.6695,41.58277 125.613,41.43002 126.2419,41.12451 C126.6193,40.92683 126.9069,40.62133 127.1045,40.208 C127.3741,39.61496 127.5089,38.59062 127.5089,37.13498 L127.5089,14.65344 C127.5089,11.79607 127.446,10.0484 127.3202,9.410439 C127.1944,8.772472 126.9877,8.332187 126.7002,8.089581 C126.4127,7.846973 126.0353,7.72567 125.568,7.72567 C125.1907,7.72567 124.6246,7.878423 123.8698,8.183928 L123.4115,7.240457 L130.7437,4.221353 L131.9836,4.221353 L131.9836,28.77853 z" stroke="Black" stroke-width="0" fill="#000000" fill-opacity="1" />
  <path d="M83.71336,35.76021 C83.71336,37.35962 83.94248,38.43787 84.40074,38.99496 C84.85899,39.55206 85.44754,39.83061 86.16637,39.83061 C86.75941,39.83061 87.33448,39.64641 87.89158,39.27801 C88.44868,38.9096 88.87997,38.36599 89.18548,37.64715 L90.23678,37.64715 C89.6078,39.40829 88.71824,40.73365 87.5681,41.6232 C86.41797,42.51276 85.23189,42.95754 84.00987,42.95754 C83.18321,42.95754 82.37453,42.72841 81.58381,42.27015 C80.79309,41.8119 80.20904,41.15596 79.83165,40.30235 C79.45426,39.44873 79.26556,38.13237 79.26556,36.35325 L79.26556,19.74817 L75.3569,19.74817 L75.3569,18.85862 C76.3453,18.46326 77.35616,17.79384 78.38949,16.85037 C79.42281,15.9069 80.34382,14.78822 81.1525,13.49432 C81.56583,12.81142 82.1409,11.56245 82.87771,9.747392 L83.71336,9.747392 L83.71336,17.86123 L89.482,17.86123 L89.482,19.74817 L83.71336,19.74817 z" stroke="Black" stroke-width="0" fill="#000000" fill-opacity="1" />
  <path d="M47.9273,22.68641 C49.99395,18.98441 52.11451,17.13342 54.28899,17.13342 C55.27739,17.13342 56.09506,17.43443 56.74201,18.03645 C57.38896,18.63848 57.71244,19.33484 57.71244,20.12556 C57.71244,20.82643 57.47882,21.41947 57.01157,21.90468 C56.54433,22.38989 55.98724,22.6325 55.34029,22.6325 C54.7113,22.6325 54.00595,22.3225 53.22422,21.70251 C52.44248,21.08251 51.86292,20.77251 51.48553,20.77251 C51.16206,20.77251 50.81163,20.95222 50.43424,21.31164 C49.62555,22.04844 48.78991,23.26148 47.9273,24.95074 L47.9273,36.78455 C47.9273,38.15034 48.09803,39.18366 48.43948,39.88452 C48.6731,40.36974 49.08643,40.77408 49.67946,41.09756 C50.2725,41.42103 51.12612,41.58277 52.24031,41.58277 L52.24031,42.5532 L39.59781,42.5532 L39.59781,41.58277 C40.85577,41.58277 41.79026,41.38509 42.40126,40.98973 C42.85054,40.7022 43.16503,40.24394 43.34473,39.61496 L43.47952,37.0002 L43.47952,27.43072 C43.47952,24.55538 43.42111,22.84366 43.3043,22.29554 C43.18749,21.74743 42.97184,21.34758 42.65735,21.09599 C42.34286,20.8444 41.952,20.7186 41.48475,20.7186 C40.92765,20.7186 40.29868,20.85338 39.59781,21.12295 L39.32825,20.15252 L46.79514,17.13342 L47.9273,17.13342 z" stroke="Black" stroke-width="0" fill="#000000" fill-opacity="1" />
</svg>