<?xml version="1.0" encoding="UTF-8" standalone="no"?>
<!DOCTYPE svg PUBLIC "-//W3C//DTD SVG 1.1//EN" "http://www.w3.org/Graphics/SVG/1.1/DTD/svg11.dtd">
<svg width="792pt" height="612pt" viewBox="0 0 792 612" overflow="visible" version="1.1" xmlns="http://www.w3.org/2000/svg">
  <path d="M624.931,371.2515 C624.931,378.7713 625.4775,383.7772 626.5706,386.2693 C627.6636,388.7613 629.2812,390.6194 631.4235,391.8436 C633.5657,393.0677 637.4787,393.6798 643.1622,393.6798 L643.1622,398.4016 L584.7962,398.4016 L584.7962,393.6798 C590.6547,393.6798 594.5894,393.1114 596.6005,391.9747 C598.6117,390.838 600.2075,388.958 601.3879,386.3348 C602.5683,383.7116 603.1586,378.6839 603.1586,371.2515 L603.1586,324.9521 C603.1586,311.9236 602.7651,303.4856 601.9781,299.6383 C601.366,296.8402 600.4042,294.8947 599.0926,293.8017 C597.781,292.7086 595.9885,292.1622 593.715,292.1622 C591.2667,292.1622 588.2938,292.818 584.7962,294.1295 L582.96,289.4078 L619.16,274.7179 L624.931,274.7179 z" stroke="Black" stroke-width="0" fill="#000000" fill-opacity="1" />
  <path d="M596.1416,242.0369 L611.3887,257.2841 C615.8239,261.4659 619.1442,264.058 621.3496,265.0605 C623.555,266.0629 626.2382,266.4762 629.399,266.3005 L629.399,268.5569 L597.2756,268.5569 L597.2756,266.2962 C599.1829,266.1781 600.4974,265.8104 601.2189,265.1931 C601.9405,264.5759 602.2206,263.7993 602.0591,262.8633 C601.8906,261.8867 600.8912,260.4314 599.061,258.4975 L589.371,248.8075 L579.681,258.4975 C577.8508,260.4314 576.8514,261.8867 576.6829,262.8633 C576.5214,263.7993 576.8015,264.5759 577.5231,265.1931 C578.2446,265.8104 579.5591,266.1781 581.4664,266.2962 L581.4664,268.5569 L549.343,268.5569 L549.343,266.3005 C552.5038,266.4762 555.187,266.0629 557.3924,265.0605 C559.5978,264.058 562.9182,261.4659 567.3533,257.2841 L582.6004,242.0369 L567.3533,226.7898 C562.9182,222.608 559.5978,220.0158 557.3924,219.0134 C555.187,218.011 552.5038,217.5976 549.343,217.7733 L549.343,215.517 L581.4664,215.517 L581.4664,217.7777 C579.5591,217.8958 578.2446,218.2635 577.5231,218.8807 C576.8015,219.498 576.5214,220.2746 576.6829,221.2105 C576.8514,222.1872 577.8508,223.6425 579.681,225.5764 L589.371,235.2663 L599.061,225.5764 C600.8912,223.6425 601.8906,222.1872 602.0591,221.2105 C602.2206,220.2746 601.9405,219.498 601.2189,218.8807 C600.4974,218.2635 599.1829,217.8958 597.2756,217.7777 L597.2756,215.517 L629.399,215.517 L629.399,217.7733 C626.2382,217.5976 623.555,218.011 621.3496,219.0134 C619.1442,220.0158 615.8239,222.608 611.3887,226.7898 z" stroke="Black" stroke-width="0" fill="#000000" fill-opacity="1" />
  <path d="M370.4876,381.0884 C358.1586,390.6194 350.4202,396.1281 347.2723,397.6146 C342.5506,399.8006 337.5228,400.8936 332.189,400.8936 C323.8822,400.8936 317.04,398.0518 311.6624,392.3682 C306.2849,386.6846 303.5961,379.2085 303.5961,369.9399 C303.5961,364.0814 304.9077,359.0099 307.5309,354.7253 C311.116,348.7794 317.346,343.1833 326.2212,337.9369 C335.0963,332.6905 349.8518,326.3074 370.4876,318.7876 L370.4876,314.0658 C370.4876,302.0866 368.5858,293.8672 364.7821,289.4078 C360.9785,284.9484 355.4479,282.7187 348.1904,282.7187 C342.6817,282.7187 338.3098,284.2051 335.0745,287.1781 C331.7518,290.151 330.0904,293.5612 330.0904,297.4085 L330.3527,305.0158 C330.3527,309.0381 329.3253,312.1422 327.2705,314.3282 C325.2156,316.5142 322.5269,317.6071 319.2041,317.6071 C315.9689,317.6071 313.3238,316.4704 311.269,314.197 C309.2141,311.9236 308.1867,308.8195 308.1867,304.8846 C308.1867,297.3648 312.0341,290.4571 319.7288,284.1614 C327.4235,277.8658 338.2223,274.7179 352.1252,274.7179 C362.7929,274.7179 371.5369,276.5104 378.3572,280.0955 C383.5161,282.8061 387.3198,287.0469 389.7681,292.818 C391.342,296.5779 392.1289,304.2726 392.1289,315.9021 L392.1289,356.6927 C392.1289,368.1474 392.3475,375.1644 392.7848,377.7439 C393.222,380.3234 393.9433,382.0503 394.9489,382.9247 C395.9544,383.7991 397.113,384.2363 398.4246,384.2363 C399.8236,384.2363 401.0478,383.9302 402.0971,383.3182 C403.9333,382.1815 407.4746,378.9899 412.721,373.7435 L412.721,381.0884 C402.9278,394.2044 393.5717,400.7624 384.6528,400.7624 C380.3683,400.7624 376.9581,399.2759 374.4224,396.303 C371.8866,393.33 370.575,388.2585 370.4876,381.0884 z M370.4876,372.5631 L370.4876,326.7883 C357.2842,332.0347 348.7588,335.7509 344.9114,337.9369 C338.0037,341.7843 333.0634,345.8065 330.0904,350.0036 C327.1174,354.2007 325.631,358.7913 325.631,363.7754 C325.631,370.071 327.5109,375.2956 331.2708,379.4489 C335.0308,383.6024 339.359,385.679 344.2556,385.679 C350.9011,385.679 359.6451,381.3071 370.4876,372.5631 z" stroke="Black" stroke-width="0" fill="#000000" fill-opacity="1" />
  <path d="M470.5602,323.5093 C470.4728,341.347 474.8011,355.3374 483.5451,365.4804 C492.2891,375.6235 502.5632,380.695 514.3676,380.695 C522.2372,380.695 529.0793,378.5309 534.8941,374.2026 C540.7089,369.8743 545.5836,362.4638 549.5184,351.971 L553.5844,354.5942 C551.7481,366.5735 546.4143,377.4816 537.5829,387.3185 C528.7515,397.1555 517.6903,402.074 504.3995,402.074 C489.9719,402.074 477.621,396.456 467.3468,385.22 C457.0727,373.984 451.9356,358.8788 451.9356,339.9043 C451.9356,319.356 457.2038,303.3326 467.7403,291.8343 C478.2768,280.3359 491.5021,274.5868 507.4161,274.5868 C520.8819,274.5868 531.943,279.0243 540.5995,287.8995 C549.2561,296.7746 553.5844,308.6446 553.5844,323.5093 z M470.5602,315.9021 L526.172,315.9021 C525.7348,308.2074 524.8167,302.7861 523.4176,299.6383 C521.2316,294.7416 517.9745,290.8943 513.6462,288.0962 C509.318,285.2981 504.7929,283.8991 500.0712,283.8991 C492.8137,283.8991 486.3213,286.719 480.594,292.3589 C474.8667,297.9988 471.5221,305.8465 470.5602,315.9021 z" stroke="Black" stroke-width="0" fill="#000000" fill-opacity="1" />
  <path d="M190.6529,365.3493 C190.6529,373.1314 191.7678,378.3778 193.9975,381.0884 C196.2272,383.7991 199.0909,385.1544 202.5884,385.1544 C205.474,385.1544 208.272,384.2581 210.9827,382.4656 C213.6933,380.6731 215.7919,378.0281 217.2783,374.5305 L222.3936,374.5305 C219.3332,383.0996 215.0049,389.5482 209.4088,393.8765 C203.8126,398.2048 198.0416,400.3689 192.0957,400.3689 C188.0734,400.3689 184.1386,399.2541 180.2913,397.0244 C176.4439,394.7946 173.6021,391.6031 171.7659,387.4497 C169.9297,383.2963 169.0116,376.8914 169.0116,368.2348 L169.0116,287.4404 L149.9934,287.4404 L149.9934,283.1122 C154.8026,281.1885 159.7211,277.9313 164.7489,273.3407 C169.7767,268.7502 174.2579,263.307 178.1927,257.0114 C180.2038,253.6886 183.0019,247.6116 186.587,238.7802 L190.6529,238.7802 L190.6529,278.2592 L218.7211,278.2592 L218.7211,287.4404 L190.6529,287.4404 z" stroke="Black" stroke-width="0" fill="#000000" fill-opacity="1" />
  <path d="M140.2409,277.9969 C138.667,266.1925 135.8471,256.7928 131.7811,249.7976 C127.7152,242.8024 121.9223,237.25 114.4024,233.1403 C106.8826,229.0306 99.10047,226.9758 91.05601,226.9758 C81.96227,226.9758 74.44244,229.752 68.49654,235.3044 C62.55063,240.8568 59.57767,247.1744 59.57767,254.257 C59.57767,259.6783 61.45763,264.6186 65.21754,269.078 C70.63882,275.636 83.53619,284.38 103.9097,295.31 C120.5232,304.2289 131.8685,311.071 137.9456,315.8365 C144.0227,320.602 148.7007,326.22 151.9797,332.6905 C155.2587,339.1611 156.8982,345.9377 156.8982,353.0203 C156.8982,366.486 151.6737,378.0936 141.2246,387.8432 C130.7755,397.5927 117.3317,402.4675 100.893,402.4675 C95.73404,402.4675 90.88113,402.074 86.33426,401.287 C83.62363,400.8499 78.00562,399.2541 69.48023,396.4997 C60.95485,393.7454 55.55544,392.3682 53.28201,392.3682 C51.09601,392.3682 49.36908,393.024 48.1012,394.3356 C46.83332,395.6472 45.89334,398.3578 45.28127,402.4675 L40.42836,402.4675 L40.42836,341.4782 L45.28127,341.4782 C47.5547,354.2444 50.61509,363.7972 54.46245,370.1366 C58.3098,376.476 64.19012,381.7443 72.10343,385.9414 C80.01673,390.1385 88.69514,392.237 98.13863,392.237 C109.0686,392.237 117.7033,389.3515 124.0427,383.5805 C130.3821,377.8094 133.5518,370.9892 133.5518,363.1196 C133.5518,358.7476 132.3495,354.3319 129.9449,349.8724 C127.5403,345.413 123.8022,341.2596 118.7307,337.4123 C115.3206,334.7891 106.0082,329.2148 90.79369,320.6894 C75.57916,312.164 64.75848,305.3656 58.33166,300.2941 C51.90483,295.2226 47.03006,289.6264 43.70735,283.5056 C40.38464,277.3848 38.72328,270.652 38.72328,263.307 C38.72328,250.5408 43.61991,239.5452 53.41317,230.3203 C63.20643,221.0954 75.6666,216.483 90.79369,216.483 C100.2372,216.483 110.2491,218.8002 120.8293,223.4345 C125.7259,225.6205 129.1798,226.7135 131.1909,226.7135 C133.4643,226.7135 135.3224,226.0358 136.7652,224.6805 C138.2079,223.3252 139.3665,220.5927 140.2409,216.483 L145.0938,216.483 L145.0938,277.9969 z" stroke="Black" stroke-width="0" fill="#000000" fill-opacity="1" />
  <path d="M584.2899,395.6472 C584.2899,416.1956 579.9179,431.4538 571.1739,441.4219 C562.4299,451.3901 551.0627,456.3741 537.0724,456.3741 C529.1154,456.3741 523.2131,454.9314 519.3658,452.0459 C515.5184,449.1603 513.5948,446.1874 513.5948,443.127 C513.5948,440.0666 514.6659,437.4434 516.8082,435.2574 C518.9504,433.0714 521.4644,431.9784 524.3499,431.9784 C526.6233,431.9784 528.9405,432.5468 531.3013,433.6835 C532.7878,434.2956 535.6515,436.5034 539.8923,440.3071 C544.1331,444.1107 547.6963,446.0125 550.5818,446.0125 C552.6804,446.0125 554.7352,445.2037 556.7463,443.5861 C558.7574,441.9684 560.2439,439.2578 561.2057,435.4542 C562.1676,431.6505 562.6485,423.4093 562.6485,410.7306 L562.6485,325.2144 C562.6485,312.011 562.2551,303.5293 561.4681,299.7694 C560.856,296.8839 559.8942,294.8947 558.5826,293.8017 C557.271,292.7086 555.4785,292.1622 553.205,292.1622 C550.7567,292.1622 547.7838,292.818 544.2861,294.1295 L542.4499,289.4078 L578.65,274.7179 L584.2899,274.7179 z" stroke="Black" stroke-width="0" fill="#000000" fill-opacity="1" />
  <path d="M697.6503,303.5731 C704.1209,297.6271 707.8808,293.8672 708.9301,292.2933 C709.6296,291.244 709.9794,290.1948 709.9794,289.1455 C709.9794,287.3967 709.258,285.8884 707.8152,284.6205 C706.3725,283.3526 703.9897,282.6312 700.667,282.4563 L700.667,278.2592 L752.8686,278.2592 L752.8686,282.4563 C745.6985,282.6312 739.7308,283.7242 734.9653,285.7353 C730.1998,287.7465 724.9753,291.3315 719.2917,296.4904 L688.4692,324.9521 L719.2917,363.9065 C727.8608,374.6616 733.6318,381.4819 736.6048,384.3675 C740.8019,388.4771 744.4744,391.144 747.6222,392.3682 C749.8082,393.2426 753.6118,393.6798 759.0331,393.6798 L759.0331,398.4016 L700.667,398.4016 L700.667,393.6798 C703.9897,393.5923 706.2413,393.0896 707.4218,392.1714 C708.6022,391.2533 709.1924,389.9636 709.1924,388.3022 C709.1924,386.2911 707.4436,383.0558 703.946,378.5964 L667.0901,331.5101 L667.0901,371.3826 C667.0901,379.1648 667.6367,384.28 668.7296,386.7283 C669.8226,389.1766 671.3747,390.9254 673.3858,391.9747 C675.3969,393.024 679.7689,393.5923 686.5018,393.6798 L686.5018,398.4016 L625.3813,398.4016 L625.3813,393.6798 C631.5021,393.6798 636.0927,392.9366 639.1531,391.4501 C640.9893,390.4882 642.3884,389.0018 643.3502,386.9906 C644.6618,384.1051 645.3176,379.1211 645.3176,372.0384 L645.3176,262.6512 C645.3176,248.7483 645.0116,240.2448 644.3995,237.1407 C643.7874,234.0365 642.7819,231.8943 641.3828,230.7138 C639.9838,229.5334 638.1475,228.9432 635.8741,228.9432 C634.0379,228.9432 631.2835,229.6864 627.611,231.1729 L625.3813,226.5823 L661.0568,211.8924 L667.0901,211.8924 L667.0901,331.3789 z" stroke="Black" stroke-width="0" fill="#000000" fill-opacity="1" />
  <path d="M432.2241,365.3493 C432.2241,373.1314 433.3389,378.3778 435.5687,381.0884 C437.7984,383.7991 440.662,385.1544 444.1596,385.1544 C447.0451,385.1544 449.8432,384.2581 452.5538,382.4656 C455.2645,380.6731 457.363,378.0281 458.8495,374.5305 L463.9647,374.5305 C460.9043,383.0996 456.5761,389.5482 450.9799,393.8765 C445.3838,398.2048 439.6127,400.3689 433.6668,400.3689 C429.6446,400.3689 425.7098,399.2541 421.8625,397.0244 C418.0151,394.7946 415.1733,391.6031 413.3371,387.4497 C411.5009,383.2963 410.5827,376.8914 410.5827,368.2348 L410.5827,287.4404 L391.5646,287.4404 L391.5646,283.1122 C396.3737,281.1885 401.2922,277.9313 406.32,273.3407 C411.3478,268.7502 415.8291,263.307 419.7639,257.0114 C421.775,253.6886 424.5731,247.6116 428.1581,238.7802 L432.2241,238.7802 L432.2241,278.2592 L460.2923,278.2592 L460.2923,287.4404 L432.2241,287.4404 z" stroke="Black" stroke-width="0" fill="#000000" fill-opacity="1" />
  <path d="M258.1019,301.7368 C268.1575,283.7242 278.4754,274.7179 289.0556,274.7179 C293.8648,274.7179 297.8433,276.1825 300.9911,279.1118 C304.1389,282.041 305.7129,285.4293 305.7129,289.2766 C305.7129,292.6868 304.5761,295.5723 302.3027,297.9332 C300.0293,300.2941 297.3186,301.4745 294.1708,301.4745 C291.1104,301.4745 287.6784,299.9662 283.8748,296.9495 C280.0711,293.9328 277.2512,292.4245 275.415,292.4245 C273.8411,292.4245 272.136,293.2989 270.2997,295.0477 C266.365,298.6327 262.299,304.5349 258.1019,312.7542 L258.1019,370.3333 C258.1019,376.9788 258.9326,382.0066 260.5939,385.4167 C261.7306,387.7776 263.7418,389.745 266.6273,391.3189 C269.5128,392.8928 273.6662,393.6798 279.0874,393.6798 L279.0874,398.4016 L217.5735,398.4016 L217.5735,393.6798 C223.6943,393.6798 228.2412,392.718 231.2141,390.7943 C233.4001,389.3952 234.9303,387.1655 235.8047,384.1051 C236.2419,382.6187 236.4605,378.3778 236.4605,371.3826 L236.4605,324.8209 C236.4605,310.8306 236.1763,302.5019 235.608,299.835 C235.0396,297.1681 233.9904,295.2226 232.4602,293.9984 C230.93,292.7742 229.0281,292.1622 226.7547,292.1622 C224.0441,292.1622 220.9837,292.818 217.5735,294.1295 L216.2619,289.4078 L252.5932,274.7179 L258.1019,274.7179 z" stroke="Black" stroke-width="0" fill="#000000" fill-opacity="1" />
</svg>